<?xml version="1.0" encoding="utf-8" ?>
<svg xmlns="http://www.w3.org/2000/svg" xmlns:xlink="http://www.w3.org/1999/xlink" viewBox="0, 0, 24, 24" focusable="false" role="presentation" shape-rendering="geometricPrecision">
  <path d="M20.385,20.385 L3.615,20.385 L3.615,3.615 L12,3.615 L12,1.219 L3.615,1.219 C2.285,1.219 1.219,2.297 1.219,3.615 L1.219,20.385 C1.219,21.703 2.285,22.781 3.615,22.781 L20.385,22.781 C21.703,22.781 22.781,21.703 22.781,20.385 L22.781,12 L20.385,12 L20.385,20.385 z M14.396,1.219 L14.396,3.615 L18.696,3.615 L6.921,15.39 L8.61,17.079 L20.385,5.304 L20.385,9.604 L22.781,9.604 L22.781,1.219 L14.396,1.219 z" fill="#003DA1" />
</svg>